<svg xmlns="http://www.w3.org/2000/svg" version="1.1" xmlns:xlink="http://www.w3.org/1999/xlink" xmlns:svgjs="http://svgjs.dev/svgjs" width="2000" height="1500" viewBox="0 0 2000 1500"><rect width="2000" height="1500" fill="#000000"></rect><g transform="matrix(0.4444444444444444,0,0,0.4444444444444444,555.5555555555557,250)"><svg viewBox="0 0 320 360" data-background-color="#000000" preserveAspectRatio="xMidYMid meet" height="2250" width="2000" xmlns="http://www.w3.org/2000/svg" xmlns:xlink="http://www.w3.org/1999/xlink"><g id="tight-bounds" transform="matrix(1,0,0,1,0,0)"><svg viewBox="0 0 320 360" height="360" width="320"><rect width="320" height="360" fill="url(#5dacde30-06d6-42aa-ab13-d0c6cf2caf07)" mask="url(#f61f2883-31ce-49ac-90a1-bd0b3c8994df)" data-fill-palette-color="tertiary"></rect><g><svg></svg></g><g><svg viewBox="0 0 320 360" height="360" width="320"><g><path transform="translate(-25.80645,-5.80645) scale(10.32258,10.32258)" d="M18 33.5c8.55 0 15.5-6.95 15.5-15.5 0-8.55-6.95-15.5-15.5-15.5-8.55 0-15.5 6.95-15.5 15.5 0 8.55 6.95 15.5 15.5 15.5zM18.5 32.47v-1c7.04-0.26 12.71-5.93 12.97-12.97h1c-0.26 7.6-6.37 13.71-13.97 13.97zM18.5 3.53c7.6 0.26 13.71 6.37 13.97 13.97h-1c-0.26-7.04-5.93-12.71-12.97-12.97zM30.5 18c0 6.89-5.61 12.5-12.5 12.5-6.89 0-12.5-5.61-12.5-12.5 0-6.89 5.61-12.5 12.5-12.5 6.89 0 12.5 5.61 12.5 12.5zM17.5 3.53v1c-7.04 0.26-12.71 5.93-12.97 12.97h-1c0.26-7.6 6.37-13.71 13.97-13.97zM4.53 18.5c0.26 7.04 5.93 12.71 12.97 12.97v1c-7.6-0.26-13.71-6.37-13.97-13.97z" fill="url(#5dacde30-06d6-42aa-ab13-d0c6cf2caf07)" fill-rule="nonzero" stroke="none" stroke-width="1" stroke-linecap="butt" stroke-linejoin="miter" stroke-miterlimit="10" stroke-dasharray="" stroke-dashoffset="0" font-family="none" font-weight="none" font-size="none" text-anchor="none" style="mix-blend-mode: normal" data-fill-palette-color="tertiary"></path></g><g transform="matrix(1,0,0,1,64.00000000000001,162.16833638097887)"><svg viewBox="0 0 191.99999999999997 35.66332723804228" height="35.66332723804228" width="191.99999999999997"><g><svg viewBox="0 0 244.24697853179993 45.36802042855557" height="35.66332723804228" width="191.99999999999997"><g transform="matrix(1,0,0,1,0,6.270109914510936)"><svg viewBox="0 0 192 32.827800599533695" height="32.827800599533695" width="192"><g id="textblocktransform"><svg viewBox="0 0 192 32.827800599533695" height="32.827800599533695" width="192" id="textblock"><g><svg viewBox="0 0 192 32.827800599533695" height="32.827800599533695" width="192"><g transform="matrix(1,0,0,1,0,0)"><svg width="192" viewBox="-0.27 -37.11 219.89000000000001 37.6" height="32.827800599533695" data-palette-color="url(#69f1b3c2-0dab-413e-aabb-48a1574d6879)"><g class="wordmark-text-0" data-fill-palette-color="primary" id="text-0"></g></svg></g></svg></g></svg></g></svg></g><g transform="matrix(1,0,0,1,199.74985585433552,0)"><svg viewBox="0 0 44.49712267746442 45.36802042855557" height="45.36802042855557" width="44.49712267746442"><g><svg xmlns="http://www.w3.org/2000/svg" viewBox="1.9959670585913454 2 58.84822835230085 60.000005964961474" x="0" y="0" height="45.36802042855557" width="44.49712267746442" class="icon-icon-0" data-fill-palette-color="accent" id="icon-0"></svg></g></svg></g></svg></g></svg></g></svg></g><defs></defs><mask id="85d43cc2-97fe-4ccd-908f-b45ba54b44e5"><g id="SvgjsG4006"><svg viewBox="0 0 320 360" height="360" width="320"><g><svg></svg></g><g><svg viewBox="0 0 320 360" height="360" width="320"><g><path transform="translate(-25.80645,-5.80645) scale(10.32258,10.32258)" d="M18 33.5c8.55 0 15.5-6.95 15.5-15.5 0-8.55-6.95-15.5-15.5-15.5-8.55 0-15.5 6.95-15.5 15.5 0 8.55 6.95 15.5 15.5 15.5zM18.5 32.47v-1c7.04-0.26 12.71-5.93 12.97-12.97h1c-0.26 7.6-6.37 13.71-13.97 13.97zM18.5 3.53c7.6 0.26 13.71 6.37 13.97 13.97h-1c-0.26-7.04-5.93-12.71-12.97-12.97zM30.5 18c0 6.89-5.61 12.5-12.5 12.5-6.89 0-12.5-5.61-12.5-12.5 0-6.89 5.61-12.5 12.5-12.5 6.89 0 12.5 5.61 12.5 12.5zM17.5 3.53v1c-7.04 0.26-12.71 5.93-12.97 12.97h-1c0.26-7.6 6.37-13.71 13.97-13.97zM4.53 18.5c0.26 7.04 5.93 12.71 12.97 12.97v1c-7.6-0.26-13.71-6.37-13.97-13.97z" fill="black" fill-rule="nonzero" stroke="none" stroke-width="1" stroke-linecap="butt" stroke-linejoin="miter" stroke-miterlimit="10" stroke-dasharray="" stroke-dashoffset="0" font-family="none" font-weight="none" font-size="none" text-anchor="none" style="mix-blend-mode: normal"></path></g><g transform="matrix(1,0,0,1,64.00000000000001,162.16833638097887)"><svg viewBox="0 0 191.99999999999997 35.66332723804228" height="35.66332723804228" width="191.99999999999997"><g><svg viewBox="0 0 244.24697853179993 45.36802042855557" height="35.66332723804228" width="191.99999999999997"><g transform="matrix(1,0,0,1,0,6.270109914510936)"><svg viewBox="0 0 192 32.827800599533695" height="32.827800599533695" width="192"><g id="SvgjsG4005"><svg viewBox="0 0 192 32.827800599533695" height="32.827800599533695" width="192" id="SvgjsSvg4004"><g><svg viewBox="0 0 192 32.827800599533695" height="32.827800599533695" width="192"><g transform="matrix(1,0,0,1,0,0)"><svg width="192" viewBox="-0.27 -37.11 219.89000000000001 37.6" height="32.827800599533695" data-palette-color="url(#69f1b3c2-0dab-413e-aabb-48a1574d6879)"><g class="wordmark-text-0" data-fill-palette-color="primary" id="SvgjsG4003"><path d="M-0.27 0L-0.27-2.69Q1.76-2.69 2.8-3.31 3.83-3.93 4.39-5.35L4.39-5.35 17.58-36.62 21.75-36.62 33.81-5.35Q34.47-3.78 35.28-3.23 36.08-2.69 38.43-2.69L38.43-2.69 38.43 0 23.36 0 23.36-2.69Q26.59-2.69 27.19-3.13 27.78-3.56 27.75-4.08 27.71-4.59 27.42-5.35L27.42-5.35 25.22-11.47 11.04-11.47 8.52-5.35Q7.96-3.88 8.86-3.28 9.77-2.69 13.09-2.69L13.09-2.69 13.09 0-0.27 0ZM12.13-14.16L24.27-14.16 18.6-29.98 12.13-14.16ZM60.47 0L60.47-2.69Q65.77-2.81 63.45-6.37L63.45-6.37 55.95-18.36 49.95-12.52 49.97-5.35Q49.97-3.76 50.51-3.37L50.51-3.37Q51.44-2.69 54.03-2.69L54.03-2.69 54.03 0 40.35 0 40.35-2.69Q42.67-2.69 43.38-3.14 44.09-3.59 44.28-4.1 44.48-4.61 44.48-5.35L44.48-5.35 44.46-31.27Q44.46-32.86 43.92-33.25L43.92-33.25Q42.94-33.94 40.35-33.94L40.35-33.94 40.35-36.62 54.03-36.62 54.03-33.94Q51.71-33.94 51.02-33.48 50.34-33.03 50.14-32.52 49.95-32.01 49.95-31.27L49.95-31.27 49.95-16.67 64.48-31.23Q65.82-32.52 64.82-33.23 63.82-33.94 61.5-33.94L61.5-33.94 61.5-36.62 74.56-36.62 74.56-33.94Q72.92-33.84 71.86-33.31 70.8-32.79 69.58-31.57L69.58-31.57 59.54-21.83 69.65-6.32Q70.87-4.37 72.25-3.53 73.63-2.69 75.46-2.69L75.46-2.69Q75.63-2.69 75.78-2.69L75.78-2.69 75.78 0 60.47 0ZM97.24-32.47L97.24-32.47Q95.97-34.18 91.8-34.18 87.64-34.18 86.05-31.4L86.05-31.4Q85.52-30.44 85.52-29.05L85.52-29.05Q85.52-26.49 87.81-24.37L87.81-24.37Q89.33-22.95 92-21.46 94.67-19.97 96.5-18.8L96.5-18.8Q103.41-14.4 103.41-9.18L103.41-9.18Q103.41-4.54 100.01-2.03 96.6 0.49 91.19 0.49 85.79 0.49 82.53-1.65 79.27-3.78 79.27-6.56 79.27-9.33 81.49-10.3L81.49-10.3Q82.17-10.62 82.98-10.62L82.98-10.62Q84.52-10.62 85.51-9.59 86.49-8.57 86.49-7.01 86.49-5.44 85.08-4.35L85.08-4.35Q86.98-2.44 91.39-2.44 95.8-2.44 97.43-5.42L97.43-5.42Q98.02-6.45 98.02-7.81L98.02-7.81Q98.02-10.18 95.58-12.21L95.58-12.21Q94.31-13.26 91.29-14.93 88.28-16.6 86.54-17.72L86.54-17.72Q80.17-21.83 80.17-27.39L80.17-27.39Q80.17-31.74 83.45-34.42 86.74-37.11 91.58-37.11 96.43-37.11 99.54-35.03 102.66-32.96 102.66-29.98L102.66-29.98Q102.66-28.37 101.67-27.28 100.68-26.2 99.16-26.2L99.16-26.2Q96.85-26.2 95.94-28.22L95.94-28.22Q95.67-28.83 95.67-29.52L95.67-29.52Q95.67-31.4 97.24-32.47ZM107.46 0L107.46-2.69Q109.78-2.69 110.49-3.14 111.2-3.59 111.39-4.1 111.59-4.61 111.59-5.35L111.59-5.35 111.56-31.27Q111.56-32.86 111.03-33.25L111.03-33.25Q110.05-33.94 107.46-33.94L107.46-33.94 107.46-36.62 121.18-36.62 121.18-33.94Q118.86-33.94 118.16-33.48 117.45-33.03 117.25-32.52 117.06-32.01 117.06-31.27L117.06-31.27 117.06-20.36 135.25-20.36 135.25-31.27Q135.25-32.86 134.71-33.25L134.71-33.25Q133.73-33.94 131.14-33.94L131.14-33.94 131.14-36.62 144.87-36.62 144.87-33.94Q142.55-33.94 141.84-33.48 141.13-33.03 140.93-32.52 140.74-32.01 140.74-31.27L140.74-31.27 140.76-5.35Q140.76-3.76 141.3-3.37L141.3-3.37Q142.28-2.69 144.87-2.69L144.87-2.69 144.87 0 131.14 0 131.14-2.69Q133.46-2.69 134.17-3.14 134.88-3.59 135.08-4.1 135.27-4.61 135.27-5.35L135.27-5.35 135.25-17.19 117.06-17.19 117.08-5.35Q117.08-3.76 117.62-3.37L117.62-3.37Q118.6-2.69 121.18-2.69L121.18-2.69 121.18 0 107.46 0ZM146.33 0L146.33-2.69Q148.35-2.69 149.39-3.31 150.43-3.93 150.99-5.35L150.99-5.35 164.17-36.62 168.35-36.62 180.41-5.35Q181.07-3.78 181.87-3.23 182.68-2.69 185.02-2.69L185.02-2.69 185.02 0 169.96 0 169.96-2.69Q173.18-2.69 173.78-3.13 174.38-3.56 174.34-4.08 174.31-4.59 174.01-5.35L174.01-5.35 171.82-11.47 157.63-11.47 155.12-5.35Q154.56-3.88 155.46-3.28 156.36-2.69 159.68-2.69L159.68-2.69 159.68 0 146.33 0ZM158.73-14.16L170.86-14.16 165.2-29.98 158.73-14.16ZM194.62 0L194.62-2.69Q197.38-2.69 198.27-3.14 199.16-3.59 199.41-4.1 199.67-4.61 199.67-5.35L199.67-5.35 199.65-12.28 189.44-31.27Q188.61-32.76 187.76-33.2L187.76-33.2Q186.32-33.94 184.09-33.94L184.09-33.94 184.09-36.62 198.23-36.62 198.23-33.94Q195.89-33.94 195.48-33.35 195.08-32.76 195.84-31.27L195.84-31.27 203.09-16.38 210.71-31.27Q211.49-32.76 211.02-33.18L211.02-33.18Q210.19-33.94 206.99-33.94L206.99-33.94 206.99-36.62 219.62-36.62 219.62-33.94Q217.81-33.94 216.65-33.33 215.49-32.71 214.71-31.27L214.71-31.27 204.89-13.23 204.89-5.35Q204.89-3.81 205.87-3.25 206.85-2.69 209.92-2.69L209.92-2.69 209.92 0 194.62 0Z" fill="white"></path></g></svg></g></svg></g></svg></g></svg></g><g transform="matrix(1,0,0,1,199.74985585433552,0)"><svg viewBox="0 0 44.49712267746442 45.36802042855557" height="45.36802042855557" width="44.49712267746442"><g><svg xmlns="http://www.w3.org/2000/svg" viewBox="1.9959670585913454 2 58.84822835230085 60.000005964961474" x="0" y="0" height="45.36802042855557" width="44.49712267746442" class="icon-icon-0" data-fill-palette-color="accent" id="SvgjsSvg4002"><rect x="32.136" y="12.973" width="2" height="13.054" transform="translate(-1.629 3.08) rotate(-5.194)" fill="black"></rect><rect x="46.359" y="13" width="2.008" height="2" transform="matrix(0.091, -0.996, 0.996, 0.091, 29.121, 59.896)" fill="black"></rect><rect x="46.272" y="48.992" width="2" height="4.016" transform="translate(-4.419 4.485) rotate(-5.189)" fill="black"></rect><rect x="58.056" y="39.967" width="1.999" height="19.066" transform="translate(-3.908 5.077) rotate(-4.766)" fill="black"></rect><path d="M58 35A2.98 2.98 0 0 0 57.22 33 2.981 2.981 0 0 0 55.094 28.01L57 7.091A1 1 0 0 0 56 6H55V4H53V6H51V3H49V6H47V4H45V6H43V2H41V6H39V4H37V6H35V4H33V6H31V3H29V6H27V4H25V6H24A1 1 0 0 0 23 7.091L24.725 26.037C24.485 26.027 24.246 26 24 26A18 18 0 0 0 24 62H56A1 1 0 0 0 57 60.917L55.09 37.991A3 3 0 0 0 58 35M8 44A16 16 0 1 1 24 60 16.02 16.02 0 0 1 8 44M55 36H42V38H45.087L45.913 47.091 47.905 46.909 47.1 38H53.08L54.913 60H32.213A17.972 17.972 0 0 0 26.761 26.234L25.1 8H54.91L53.087 28H47.1L48.092 17.091 46.1 16.909 45.087 28H41V11H39V28H37V30H55A1 1 0 0 1 55 32H40V34H55A1 1 0 0 1 55 36" fill="black"></path><path d="M23.083 54.962L22.917 56.956A13.4 13.4 0 0 0 25.083 56.956L24.917 54.962A11 11 0 0 1 23.083 54.962" fill="black"></path><path d="M27.249 31.409L26.749 33.347A11 11 0 0 1 26.749 54.653L27.249 56.591A13 13 0 0 0 27.249 31.409" fill="black"></path><path d="M13 44A11.02 11.02 0 0 1 20.333 33.625L19.667 31.74A13 13 0 0 0 19.667 56.26L20.333 54.375A11.02 11.02 0 0 1 13 44" fill="black"></path><path d="M18 44A6 6 0 0 1 27.092 38.856L28.123 37.144A8 8 0 0 0 19.877 50.856L20.908 49.144A5.96 5.96 0 0 1 18 44" fill="black"></path><path d="M32 44A8 8 0 0 0 30.856 39.877L29.144 40.908A6 6 0 0 1 24.858 49.938L25.142 51.919A8.035 8.035 0 0 0 32 44" fill="black"></path><path d="M27 44A3 3 0 0 0 24 41V43A1 1 0 1 1 23 44H21A3 3 0 0 0 27 44" fill="black"></path><path d="M3.253 51.333L5.138 50.667A20.03 20.03 0 0 1 15.429 25.924L14.571 24.117A22.025 22.025 0 0 0 3.253 51.333" fill="black"></path><path d="M6.856 54.306A20 20 0 0 1 5.924 52.571L4.117 53.429C4.427 54.08 4.772 54.724 5.144 55.339Z" fill="black"></path></svg></g></svg></g></svg></g></svg></g></svg></g><defs><mask></mask></defs></svg><rect width="320" height="360" fill="black" stroke="none" visibility="hidden"></rect></g></mask><linearGradient x1="0.054" x2="0.941" y1="0.5" y2="0.5" id="69f1b3c2-0dab-413e-aabb-48a1574d6879"><stop stop-color="#864d25" offset="0"></stop><stop stop-color="#f1c4b3" offset="0.498"></stop><stop stop-color="#864d25" offset="1"></stop></linearGradient><rect width="320" height="360" fill="url(#69f1b3c2-0dab-413e-aabb-48a1574d6879)" mask="url(#85d43cc2-97fe-4ccd-908f-b45ba54b44e5)" data-fill-palette-color="primary"></rect><mask id="f3924726-9f5f-4741-9a2c-ff35045f0e8c"><g id="SvgjsG4027"><svg viewBox="0 0 320 360" height="360" width="320"><g><svg></svg></g><g><svg viewBox="0 0 320 360" height="360" width="320"><g><path transform="translate(-25.80645,-5.80645) scale(10.32258,10.32258)" d="M18 33.5c8.55 0 15.5-6.95 15.5-15.5 0-8.55-6.95-15.5-15.5-15.5-8.55 0-15.5 6.95-15.5 15.5 0 8.55 6.95 15.5 15.5 15.5zM18.5 32.47v-1c7.04-0.26 12.71-5.93 12.97-12.97h1c-0.26 7.6-6.37 13.71-13.97 13.97zM18.5 3.53c7.6 0.26 13.71 6.37 13.97 13.97h-1c-0.26-7.04-5.93-12.71-12.97-12.97zM30.5 18c0 6.89-5.61 12.5-12.5 12.5-6.89 0-12.5-5.61-12.5-12.5 0-6.89 5.61-12.5 12.5-12.5 6.89 0 12.5 5.61 12.5 12.5zM17.5 3.53v1c-7.04 0.26-12.71 5.93-12.97 12.97h-1c0.26-7.6 6.37-13.71 13.97-13.97zM4.53 18.5c0.26 7.04 5.93 12.71 12.97 12.97v1c-7.6-0.26-13.71-6.37-13.97-13.97z" fill="black" fill-rule="nonzero" stroke="none" stroke-width="1" stroke-linecap="butt" stroke-linejoin="miter" stroke-miterlimit="10" stroke-dasharray="" stroke-dashoffset="0" font-family="none" font-weight="none" font-size="none" text-anchor="none" style="mix-blend-mode: normal"></path></g><g transform="matrix(1,0,0,1,64.00000000000001,162.16833638097887)"><svg viewBox="0 0 191.99999999999997 35.66332723804228" height="35.66332723804228" width="191.99999999999997"><g><svg viewBox="0 0 244.24697853179993 45.36802042855557" height="35.66332723804228" width="191.99999999999997"><g transform="matrix(1,0,0,1,0,6.270109914510936)"><svg viewBox="0 0 192 32.827800599533695" height="32.827800599533695" width="192"><g id="SvgjsG4026"><svg viewBox="0 0 192 32.827800599533695" height="32.827800599533695" width="192" id="SvgjsSvg4025"><g><svg viewBox="0 0 192 32.827800599533695" height="32.827800599533695" width="192"><g transform="matrix(1,0,0,1,0,0)"><svg width="192" viewBox="-0.27 -37.11 219.89000000000001 37.6" height="32.827800599533695" data-palette-color="url(#69f1b3c2-0dab-413e-aabb-48a1574d6879)"><g class="wordmark-text-0" data-fill-palette-color="primary" id="SvgjsG4024"></g></svg></g></svg></g></svg></g></svg></g><g transform="matrix(1,0,0,1,199.74985585433552,0)"><svg viewBox="0 0 44.49712267746442 45.36802042855557" height="45.36802042855557" width="44.49712267746442"><g><svg xmlns="http://www.w3.org/2000/svg" viewBox="1.9959670585913454 2 58.84822835230085 60.000005964961474" x="0" y="0" height="45.36802042855557" width="44.49712267746442" class="icon-icon-0" data-fill-palette-color="accent" id="SvgjsSvg4023"><rect x="32.136" y="12.973" width="2" height="13.054" transform="translate(-1.629 3.08) rotate(-5.194)" fill="white"></rect><rect x="46.359" y="13" width="2.008" height="2" transform="matrix(0.091, -0.996, 0.996, 0.091, 29.121, 59.896)" fill="white"></rect><rect x="46.272" y="48.992" width="2" height="4.016" transform="translate(-4.419 4.485) rotate(-5.189)" fill="white"></rect><rect x="58.056" y="39.967" width="1.999" height="19.066" transform="translate(-3.908 5.077) rotate(-4.766)" fill="white"></rect><path d="M58 35A2.98 2.98 0 0 0 57.22 33 2.981 2.981 0 0 0 55.094 28.01L57 7.091A1 1 0 0 0 56 6H55V4H53V6H51V3H49V6H47V4H45V6H43V2H41V6H39V4H37V6H35V4H33V6H31V3H29V6H27V4H25V6H24A1 1 0 0 0 23 7.091L24.725 26.037C24.485 26.027 24.246 26 24 26A18 18 0 0 0 24 62H56A1 1 0 0 0 57 60.917L55.09 37.991A3 3 0 0 0 58 35M8 44A16 16 0 1 1 24 60 16.02 16.02 0 0 1 8 44M55 36H42V38H45.087L45.913 47.091 47.905 46.909 47.1 38H53.08L54.913 60H32.213A17.972 17.972 0 0 0 26.761 26.234L25.1 8H54.91L53.087 28H47.1L48.092 17.091 46.1 16.909 45.087 28H41V11H39V28H37V30H55A1 1 0 0 1 55 32H40V34H55A1 1 0 0 1 55 36" fill="white"></path><path d="M23.083 54.962L22.917 56.956A13.4 13.4 0 0 0 25.083 56.956L24.917 54.962A11 11 0 0 1 23.083 54.962" fill="white"></path><path d="M27.249 31.409L26.749 33.347A11 11 0 0 1 26.749 54.653L27.249 56.591A13 13 0 0 0 27.249 31.409" fill="white"></path><path d="M13 44A11.02 11.02 0 0 1 20.333 33.625L19.667 31.74A13 13 0 0 0 19.667 56.26L20.333 54.375A11.02 11.02 0 0 1 13 44" fill="white"></path><path d="M18 44A6 6 0 0 1 27.092 38.856L28.123 37.144A8 8 0 0 0 19.877 50.856L20.908 49.144A5.96 5.96 0 0 1 18 44" fill="white"></path><path d="M32 44A8 8 0 0 0 30.856 39.877L29.144 40.908A6 6 0 0 1 24.858 49.938L25.142 51.919A8.035 8.035 0 0 0 32 44" fill="white"></path><path d="M27 44A3 3 0 0 0 24 41V43A1 1 0 1 1 23 44H21A3 3 0 0 0 27 44" fill="white"></path><path d="M3.253 51.333L5.138 50.667A20.03 20.03 0 0 1 15.429 25.924L14.571 24.117A22.025 22.025 0 0 0 3.253 51.333" fill="white"></path><path d="M6.856 54.306A20 20 0 0 1 5.924 52.571L4.117 53.429C4.427 54.08 4.772 54.724 5.144 55.339Z" fill="white"></path></svg></g></svg></g></svg></g></svg></g></svg></g><defs><mask></mask></defs><mask><g id="SvgjsG4022"><svg viewBox="0 0 320 360" height="360" width="320"><g><svg></svg></g><g><svg viewBox="0 0 320 360" height="360" width="320"><g><path transform="translate(-25.80645,-5.80645) scale(10.32258,10.32258)" d="M18 33.5c8.55 0 15.5-6.95 15.5-15.5 0-8.55-6.95-15.5-15.5-15.5-8.55 0-15.5 6.95-15.5 15.5 0 8.55 6.95 15.5 15.5 15.5zM18.5 32.47v-1c7.04-0.26 12.71-5.93 12.97-12.97h1c-0.26 7.6-6.37 13.71-13.97 13.97zM18.5 3.53c7.6 0.26 13.71 6.37 13.97 13.97h-1c-0.26-7.04-5.93-12.71-12.97-12.97zM30.5 18c0 6.89-5.61 12.5-12.5 12.5-6.89 0-12.5-5.61-12.5-12.5 0-6.89 5.61-12.5 12.5-12.5 6.89 0 12.5 5.61 12.5 12.5zM17.5 3.53v1c-7.04 0.26-12.71 5.93-12.97 12.97h-1c0.26-7.6 6.37-13.71 13.97-13.97zM4.53 18.5c0.26 7.04 5.93 12.71 12.97 12.97v1c-7.6-0.26-13.71-6.37-13.97-13.97z" fill="black" fill-rule="nonzero" stroke="none" stroke-width="1" stroke-linecap="butt" stroke-linejoin="miter" stroke-miterlimit="10" stroke-dasharray="" stroke-dashoffset="0" font-family="none" font-weight="none" font-size="none" text-anchor="none" style="mix-blend-mode: normal"></path></g><g transform="matrix(1,0,0,1,64.00000000000001,162.16833638097887)"><svg viewBox="0 0 191.99999999999997 35.66332723804228" height="35.66332723804228" width="191.99999999999997"><g><svg viewBox="0 0 244.24697853179993 45.36802042855557" height="35.66332723804228" width="191.99999999999997"><g transform="matrix(1,0,0,1,0,6.270109914510936)"><svg viewBox="0 0 192 32.827800599533695" height="32.827800599533695" width="192"><g id="SvgjsG4021"><svg viewBox="0 0 192 32.827800599533695" height="32.827800599533695" width="192" id="SvgjsSvg4020"><g><svg viewBox="0 0 192 32.827800599533695" height="32.827800599533695" width="192"><g transform="matrix(1,0,0,1,0,0)"><svg width="192" viewBox="-0.27 -37.11 219.89000000000001 37.6" height="32.827800599533695" data-palette-color="url(#69f1b3c2-0dab-413e-aabb-48a1574d6879)"><g class="wordmark-text-0" data-fill-palette-color="primary" id="SvgjsG4019"><path d="M-0.27 0L-0.27-2.69Q1.76-2.69 2.8-3.31 3.83-3.93 4.39-5.35L4.39-5.35 17.58-36.62 21.75-36.62 33.81-5.35Q34.47-3.78 35.28-3.23 36.08-2.69 38.43-2.69L38.43-2.69 38.43 0 23.36 0 23.36-2.69Q26.59-2.69 27.19-3.13 27.78-3.56 27.75-4.08 27.71-4.59 27.42-5.35L27.42-5.35 25.22-11.47 11.04-11.47 8.52-5.35Q7.96-3.88 8.86-3.28 9.77-2.69 13.09-2.69L13.09-2.69 13.09 0-0.27 0ZM12.13-14.16L24.27-14.16 18.6-29.98 12.13-14.16ZM60.47 0L60.47-2.69Q65.77-2.81 63.45-6.37L63.45-6.37 55.95-18.36 49.95-12.52 49.97-5.35Q49.97-3.76 50.51-3.37L50.51-3.37Q51.44-2.69 54.03-2.69L54.03-2.69 54.03 0 40.35 0 40.35-2.69Q42.67-2.69 43.38-3.14 44.09-3.59 44.28-4.1 44.48-4.61 44.48-5.35L44.48-5.35 44.46-31.27Q44.46-32.86 43.92-33.25L43.92-33.25Q42.94-33.94 40.35-33.94L40.35-33.94 40.35-36.62 54.03-36.62 54.03-33.94Q51.71-33.94 51.02-33.48 50.34-33.03 50.14-32.52 49.95-32.01 49.95-31.27L49.95-31.27 49.95-16.67 64.48-31.23Q65.82-32.52 64.82-33.23 63.82-33.94 61.5-33.94L61.5-33.94 61.5-36.62 74.56-36.62 74.56-33.94Q72.92-33.84 71.86-33.31 70.8-32.79 69.58-31.57L69.58-31.57 59.54-21.83 69.65-6.32Q70.87-4.37 72.25-3.53 73.63-2.69 75.46-2.69L75.46-2.69Q75.63-2.69 75.78-2.69L75.78-2.69 75.78 0 60.47 0ZM97.24-32.47L97.24-32.47Q95.97-34.18 91.8-34.18 87.64-34.18 86.05-31.4L86.05-31.4Q85.52-30.44 85.52-29.05L85.52-29.05Q85.52-26.49 87.81-24.37L87.81-24.37Q89.33-22.95 92-21.46 94.67-19.97 96.5-18.8L96.5-18.8Q103.41-14.4 103.41-9.18L103.41-9.18Q103.41-4.54 100.01-2.03 96.6 0.49 91.19 0.49 85.79 0.49 82.53-1.65 79.27-3.78 79.27-6.56 79.27-9.33 81.49-10.3L81.49-10.3Q82.17-10.62 82.98-10.62L82.98-10.62Q84.52-10.62 85.51-9.59 86.49-8.57 86.49-7.01 86.49-5.44 85.08-4.35L85.08-4.35Q86.98-2.44 91.39-2.44 95.8-2.44 97.43-5.42L97.43-5.42Q98.02-6.45 98.02-7.81L98.02-7.81Q98.02-10.18 95.58-12.21L95.58-12.21Q94.31-13.26 91.29-14.93 88.28-16.6 86.54-17.72L86.54-17.72Q80.17-21.83 80.17-27.39L80.17-27.39Q80.17-31.74 83.45-34.42 86.74-37.11 91.58-37.11 96.43-37.11 99.54-35.03 102.66-32.96 102.66-29.98L102.66-29.98Q102.66-28.37 101.67-27.28 100.68-26.2 99.16-26.2L99.16-26.2Q96.85-26.2 95.94-28.22L95.94-28.22Q95.67-28.83 95.67-29.52L95.67-29.52Q95.67-31.4 97.24-32.47ZM107.46 0L107.46-2.69Q109.78-2.69 110.49-3.14 111.2-3.59 111.39-4.1 111.59-4.61 111.59-5.35L111.59-5.35 111.56-31.27Q111.56-32.86 111.03-33.25L111.03-33.25Q110.05-33.94 107.46-33.94L107.46-33.94 107.46-36.62 121.18-36.62 121.18-33.94Q118.86-33.94 118.16-33.48 117.45-33.03 117.25-32.52 117.06-32.01 117.06-31.27L117.06-31.27 117.06-20.36 135.25-20.36 135.25-31.27Q135.25-32.86 134.71-33.25L134.71-33.25Q133.73-33.94 131.14-33.94L131.14-33.94 131.14-36.62 144.87-36.62 144.87-33.94Q142.55-33.94 141.84-33.48 141.13-33.03 140.93-32.52 140.74-32.01 140.74-31.27L140.74-31.27 140.76-5.35Q140.76-3.76 141.3-3.37L141.3-3.37Q142.28-2.69 144.87-2.69L144.87-2.69 144.87 0 131.14 0 131.14-2.69Q133.46-2.69 134.17-3.14 134.88-3.59 135.08-4.1 135.27-4.61 135.27-5.35L135.27-5.35 135.25-17.19 117.06-17.19 117.08-5.35Q117.08-3.76 117.62-3.37L117.62-3.37Q118.6-2.69 121.18-2.69L121.18-2.69 121.18 0 107.46 0ZM146.33 0L146.33-2.69Q148.35-2.69 149.39-3.31 150.43-3.93 150.99-5.35L150.99-5.35 164.17-36.62 168.35-36.62 180.41-5.35Q181.07-3.78 181.87-3.23 182.68-2.69 185.02-2.69L185.02-2.69 185.02 0 169.96 0 169.96-2.69Q173.18-2.69 173.78-3.13 174.38-3.56 174.34-4.08 174.31-4.59 174.01-5.35L174.01-5.35 171.82-11.47 157.63-11.47 155.12-5.35Q154.56-3.88 155.46-3.28 156.36-2.69 159.68-2.69L159.68-2.69 159.68 0 146.33 0ZM158.73-14.16L170.86-14.16 165.2-29.98 158.73-14.16ZM194.62 0L194.62-2.69Q197.38-2.69 198.27-3.14 199.16-3.59 199.41-4.1 199.67-4.61 199.67-5.35L199.67-5.35 199.65-12.28 189.44-31.27Q188.61-32.76 187.76-33.2L187.76-33.2Q186.32-33.94 184.09-33.94L184.09-33.94 184.09-36.62 198.23-36.62 198.23-33.94Q195.89-33.94 195.48-33.35 195.08-32.76 195.84-31.27L195.84-31.27 203.09-16.38 210.71-31.27Q211.49-32.76 211.02-33.18L211.02-33.18Q210.19-33.94 206.99-33.94L206.99-33.94 206.99-36.62 219.62-36.62 219.62-33.94Q217.81-33.94 216.65-33.33 215.49-32.71 214.71-31.27L214.71-31.27 204.89-13.23 204.89-5.35Q204.89-3.81 205.87-3.25 206.85-2.69 209.92-2.69L209.92-2.69 209.92 0 194.62 0Z" fill="black"></path></g></svg></g></svg></g></svg></g></svg></g><g transform="matrix(1,0,0,1,199.74985585433552,0)"><svg viewBox="0 0 44.49712267746442 45.36802042855557" height="45.36802042855557" width="44.49712267746442"><g><svg xmlns="http://www.w3.org/2000/svg" viewBox="1.9959670585913454 2 58.84822835230085 60.000005964961474" x="0" y="0" height="45.36802042855557" width="44.49712267746442" class="icon-icon-0" data-fill-palette-color="accent" id="SvgjsSvg4018"><rect x="32.136" y="12.973" width="2" height="13.054" transform="translate(-1.629 3.08) rotate(-5.194)" fill="black"></rect><rect x="46.359" y="13" width="2.008" height="2" transform="matrix(0.091, -0.996, 0.996, 0.091, 29.121, 59.896)" fill="black"></rect><rect x="46.272" y="48.992" width="2" height="4.016" transform="translate(-4.419 4.485) rotate(-5.189)" fill="black"></rect><rect x="58.056" y="39.967" width="1.999" height="19.066" transform="translate(-3.908 5.077) rotate(-4.766)" fill="black"></rect><path d="M58 35A2.98 2.98 0 0 0 57.22 33 2.981 2.981 0 0 0 55.094 28.01L57 7.091A1 1 0 0 0 56 6H55V4H53V6H51V3H49V6H47V4H45V6H43V2H41V6H39V4H37V6H35V4H33V6H31V3H29V6H27V4H25V6H24A1 1 0 0 0 23 7.091L24.725 26.037C24.485 26.027 24.246 26 24 26A18 18 0 0 0 24 62H56A1 1 0 0 0 57 60.917L55.09 37.991A3 3 0 0 0 58 35M8 44A16 16 0 1 1 24 60 16.02 16.02 0 0 1 8 44M55 36H42V38H45.087L45.913 47.091 47.905 46.909 47.1 38H53.08L54.913 60H32.213A17.972 17.972 0 0 0 26.761 26.234L25.1 8H54.91L53.087 28H47.1L48.092 17.091 46.1 16.909 45.087 28H41V11H39V28H37V30H55A1 1 0 0 1 55 32H40V34H55A1 1 0 0 1 55 36" fill="black"></path><path d="M23.083 54.962L22.917 56.956A13.4 13.4 0 0 0 25.083 56.956L24.917 54.962A11 11 0 0 1 23.083 54.962" fill="black"></path><path d="M27.249 31.409L26.749 33.347A11 11 0 0 1 26.749 54.653L27.249 56.591A13 13 0 0 0 27.249 31.409" fill="black"></path><path d="M13 44A11.02 11.02 0 0 1 20.333 33.625L19.667 31.74A13 13 0 0 0 19.667 56.26L20.333 54.375A11.02 11.02 0 0 1 13 44" fill="black"></path><path d="M18 44A6 6 0 0 1 27.092 38.856L28.123 37.144A8 8 0 0 0 19.877 50.856L20.908 49.144A5.96 5.96 0 0 1 18 44" fill="black"></path><path d="M32 44A8 8 0 0 0 30.856 39.877L29.144 40.908A6 6 0 0 1 24.858 49.938L25.142 51.919A8.035 8.035 0 0 0 32 44" fill="black"></path><path d="M27 44A3 3 0 0 0 24 41V43A1 1 0 1 1 23 44H21A3 3 0 0 0 27 44" fill="black"></path><path d="M3.253 51.333L5.138 50.667A20.03 20.03 0 0 1 15.429 25.924L14.571 24.117A22.025 22.025 0 0 0 3.253 51.333" fill="black"></path><path d="M6.856 54.306A20 20 0 0 1 5.924 52.571L4.117 53.429C4.427 54.08 4.772 54.724 5.144 55.339Z" fill="black"></path></svg></g></svg></g></svg></g></svg></g></svg></g><defs><mask></mask></defs></svg><rect width="320" height="360" fill="black" stroke="none" visibility="hidden"></rect></g></mask></svg><rect width="320" height="360" fill="black" stroke="none" visibility="hidden"></rect></g></mask><linearGradient x1="0.054" x2="0.941" y1="0.5" y2="0.5" id="28c572dc-05dd-48ac-99f1-7d1fd929f5d8"><stop stop-color="#864d25" offset="0"></stop><stop stop-color="#f1c4b3" offset="0.498"></stop><stop stop-color="#864d25" offset="1"></stop></linearGradient><rect width="320" height="360" fill="url(#28c572dc-05dd-48ac-99f1-7d1fd929f5d8)" mask="url(#f3924726-9f5f-4741-9a2c-ff35045f0e8c)" data-fill-palette-color="accent"></rect><mask id="f61f2883-31ce-49ac-90a1-bd0b3c8994df"><g id="SvgjsG4047"><svg viewBox="0 0 320 360" height="360" width="320"><g><svg></svg></g><g><svg viewBox="0 0 320 360" height="360" width="320"><g><path transform="translate(-25.80645,-5.80645) scale(10.32258,10.32258)" d="M18 33.5c8.55 0 15.5-6.95 15.5-15.5 0-8.55-6.95-15.5-15.5-15.5-8.55 0-15.5 6.95-15.5 15.5 0 8.55 6.95 15.5 15.5 15.5zM18.5 32.47v-1c7.04-0.26 12.71-5.93 12.97-12.97h1c-0.26 7.6-6.37 13.71-13.97 13.97zM18.5 3.53c7.6 0.26 13.71 6.37 13.97 13.97h-1c-0.26-7.04-5.93-12.71-12.97-12.97zM30.5 18c0 6.89-5.61 12.5-12.5 12.5-6.89 0-12.5-5.61-12.5-12.5 0-6.89 5.61-12.5 12.5-12.5 6.89 0 12.5 5.61 12.5 12.5zM17.5 3.53v1c-7.04 0.26-12.71 5.93-12.97 12.97h-1c0.26-7.6 6.37-13.71 13.97-13.97zM4.53 18.5c0.26 7.04 5.93 12.71 12.97 12.97v1c-7.6-0.26-13.71-6.37-13.97-13.97z" fill="white" fill-rule="nonzero" stroke="none" stroke-width="1" stroke-linecap="butt" stroke-linejoin="miter" stroke-miterlimit="10" stroke-dasharray="" stroke-dashoffset="0" font-family="none" font-weight="none" font-size="none" text-anchor="none" style="mix-blend-mode: normal"></path></g><g transform="matrix(1,0,0,1,64.00000000000001,162.16833638097887)"><svg viewBox="0 0 191.99999999999997 35.66332723804228" height="35.66332723804228" width="191.99999999999997"><g><svg viewBox="0 0 244.24697853179993 45.36802042855557" height="35.66332723804228" width="191.99999999999997"><g transform="matrix(1,0,0,1,0,6.270109914510936)"><svg viewBox="0 0 192 32.827800599533695" height="32.827800599533695" width="192"><g id="SvgjsG4046"><svg viewBox="0 0 192 32.827800599533695" height="32.827800599533695" width="192" id="SvgjsSvg4045"><g><svg viewBox="0 0 192 32.827800599533695" height="32.827800599533695" width="192"><g transform="matrix(1,0,0,1,0,0)"><svg width="192" viewBox="-0.27 -37.11 219.89000000000001 37.6" height="32.827800599533695" data-palette-color="url(#69f1b3c2-0dab-413e-aabb-48a1574d6879)"><g class="wordmark-text-0" data-fill-palette-color="primary" id="SvgjsG4044"></g></svg></g></svg></g></svg></g></svg></g><g transform="matrix(1,0,0,1,199.74985585433552,0)"><svg viewBox="0 0 44.49712267746442 45.36802042855557" height="45.36802042855557" width="44.49712267746442"><g><svg xmlns="http://www.w3.org/2000/svg" viewBox="1.9959670585913454 2 58.84822835230085 60.000005964961474" x="0" y="0" height="45.36802042855557" width="44.49712267746442" class="icon-icon-0" data-fill-palette-color="accent" id="SvgjsSvg4043"></svg></g></svg></g></svg></g></svg></g></svg></g><defs><mask></mask></defs><mask><g id="SvgjsG4042"><svg viewBox="0 0 320 360" height="360" width="320"><g><svg></svg></g><g><svg viewBox="0 0 320 360" height="360" width="320"><g><path transform="translate(-25.80645,-5.80645) scale(10.32258,10.32258)" d="M18 33.5c8.55 0 15.5-6.95 15.5-15.5 0-8.55-6.95-15.5-15.5-15.5-8.55 0-15.5 6.95-15.5 15.5 0 8.55 6.95 15.5 15.5 15.5zM18.5 32.47v-1c7.04-0.26 12.71-5.93 12.97-12.97h1c-0.26 7.6-6.37 13.71-13.97 13.97zM18.5 3.53c7.6 0.26 13.71 6.37 13.97 13.97h-1c-0.26-7.04-5.93-12.71-12.97-12.97zM30.5 18c0 6.89-5.61 12.5-12.5 12.5-6.89 0-12.5-5.61-12.5-12.5 0-6.89 5.61-12.5 12.5-12.5 6.89 0 12.5 5.61 12.5 12.5zM17.5 3.53v1c-7.04 0.26-12.71 5.93-12.97 12.97h-1c0.26-7.6 6.37-13.71 13.97-13.97zM4.53 18.5c0.26 7.04 5.93 12.71 12.97 12.97v1c-7.6-0.26-13.71-6.37-13.97-13.97z" fill="black" fill-rule="nonzero" stroke="none" stroke-width="1" stroke-linecap="butt" stroke-linejoin="miter" stroke-miterlimit="10" stroke-dasharray="" stroke-dashoffset="0" font-family="none" font-weight="none" font-size="none" text-anchor="none" style="mix-blend-mode: normal"></path></g><g transform="matrix(1,0,0,1,64.00000000000001,162.16833638097887)"><svg viewBox="0 0 191.99999999999997 35.66332723804228" height="35.66332723804228" width="191.99999999999997"><g><svg viewBox="0 0 244.24697853179993 45.36802042855557" height="35.66332723804228" width="191.99999999999997"><g transform="matrix(1,0,0,1,0,6.270109914510936)"><svg viewBox="0 0 192 32.827800599533695" height="32.827800599533695" width="192"><g id="SvgjsG4041"><svg viewBox="0 0 192 32.827800599533695" height="32.827800599533695" width="192" id="SvgjsSvg4040"><g><svg viewBox="0 0 192 32.827800599533695" height="32.827800599533695" width="192"><g transform="matrix(1,0,0,1,0,0)"><svg width="192" viewBox="-0.27 -37.11 219.89000000000001 37.6" height="32.827800599533695" data-palette-color="url(#69f1b3c2-0dab-413e-aabb-48a1574d6879)"><g class="wordmark-text-0" data-fill-palette-color="primary" id="SvgjsG4039"><path d="M-0.27 0L-0.27-2.69Q1.76-2.69 2.8-3.31 3.83-3.93 4.39-5.35L4.39-5.35 17.58-36.62 21.75-36.62 33.81-5.35Q34.47-3.78 35.28-3.23 36.08-2.69 38.43-2.69L38.43-2.69 38.43 0 23.36 0 23.36-2.69Q26.59-2.69 27.19-3.13 27.78-3.56 27.75-4.08 27.71-4.59 27.42-5.35L27.42-5.35 25.22-11.47 11.04-11.47 8.52-5.35Q7.96-3.88 8.86-3.28 9.77-2.69 13.09-2.69L13.09-2.69 13.09 0-0.27 0ZM12.13-14.16L24.27-14.16 18.6-29.98 12.13-14.16ZM60.47 0L60.47-2.69Q65.77-2.81 63.45-6.37L63.45-6.37 55.95-18.36 49.95-12.52 49.97-5.35Q49.97-3.76 50.51-3.37L50.51-3.37Q51.44-2.69 54.03-2.69L54.03-2.69 54.03 0 40.35 0 40.35-2.69Q42.67-2.69 43.38-3.14 44.09-3.59 44.28-4.1 44.48-4.61 44.48-5.35L44.48-5.35 44.46-31.27Q44.46-32.86 43.92-33.25L43.92-33.25Q42.94-33.94 40.35-33.94L40.35-33.94 40.35-36.62 54.03-36.62 54.03-33.94Q51.71-33.94 51.02-33.48 50.34-33.03 50.14-32.52 49.95-32.01 49.95-31.27L49.95-31.27 49.95-16.67 64.48-31.23Q65.82-32.52 64.82-33.23 63.82-33.94 61.5-33.94L61.5-33.94 61.5-36.62 74.56-36.62 74.56-33.94Q72.92-33.84 71.86-33.31 70.8-32.79 69.58-31.57L69.58-31.57 59.54-21.83 69.65-6.32Q70.87-4.37 72.25-3.53 73.63-2.69 75.46-2.69L75.46-2.69Q75.63-2.69 75.78-2.69L75.78-2.69 75.78 0 60.47 0ZM97.24-32.47L97.24-32.47Q95.97-34.18 91.8-34.18 87.64-34.18 86.05-31.4L86.05-31.4Q85.52-30.44 85.52-29.05L85.52-29.05Q85.52-26.49 87.81-24.37L87.81-24.37Q89.33-22.95 92-21.46 94.67-19.97 96.5-18.8L96.5-18.8Q103.41-14.4 103.41-9.18L103.41-9.18Q103.41-4.54 100.01-2.03 96.6 0.49 91.19 0.49 85.79 0.49 82.53-1.65 79.27-3.78 79.27-6.56 79.27-9.33 81.49-10.3L81.49-10.3Q82.17-10.62 82.98-10.62L82.98-10.62Q84.52-10.62 85.51-9.59 86.49-8.57 86.49-7.01 86.49-5.44 85.08-4.35L85.08-4.35Q86.98-2.44 91.39-2.44 95.8-2.44 97.43-5.42L97.43-5.42Q98.02-6.45 98.02-7.81L98.02-7.81Q98.02-10.18 95.58-12.21L95.58-12.21Q94.31-13.26 91.29-14.93 88.28-16.6 86.54-17.72L86.54-17.72Q80.17-21.83 80.17-27.39L80.17-27.39Q80.17-31.74 83.45-34.42 86.74-37.11 91.58-37.11 96.43-37.11 99.54-35.03 102.66-32.96 102.66-29.98L102.66-29.98Q102.66-28.37 101.67-27.28 100.68-26.2 99.16-26.2L99.16-26.2Q96.85-26.2 95.94-28.22L95.94-28.22Q95.67-28.83 95.67-29.52L95.67-29.52Q95.67-31.4 97.24-32.47ZM107.46 0L107.46-2.69Q109.78-2.69 110.49-3.14 111.2-3.59 111.39-4.1 111.59-4.61 111.59-5.35L111.59-5.35 111.56-31.27Q111.56-32.86 111.03-33.25L111.03-33.25Q110.05-33.94 107.46-33.94L107.46-33.94 107.46-36.62 121.18-36.62 121.18-33.94Q118.86-33.94 118.16-33.48 117.45-33.03 117.25-32.52 117.06-32.01 117.06-31.27L117.06-31.27 117.06-20.36 135.25-20.36 135.25-31.27Q135.25-32.86 134.71-33.25L134.71-33.25Q133.73-33.94 131.14-33.94L131.14-33.94 131.14-36.62 144.87-36.62 144.87-33.94Q142.55-33.94 141.84-33.48 141.13-33.03 140.93-32.52 140.74-32.01 140.74-31.27L140.74-31.27 140.76-5.35Q140.76-3.76 141.3-3.37L141.3-3.37Q142.28-2.69 144.87-2.69L144.87-2.69 144.87 0 131.14 0 131.14-2.69Q133.46-2.69 134.17-3.14 134.88-3.59 135.08-4.1 135.27-4.61 135.27-5.35L135.27-5.35 135.25-17.19 117.06-17.19 117.08-5.35Q117.08-3.76 117.62-3.37L117.62-3.37Q118.6-2.69 121.18-2.69L121.18-2.69 121.18 0 107.46 0ZM146.33 0L146.33-2.69Q148.35-2.69 149.39-3.31 150.43-3.93 150.99-5.35L150.99-5.35 164.17-36.62 168.35-36.62 180.41-5.35Q181.07-3.78 181.87-3.23 182.68-2.69 185.02-2.69L185.02-2.69 185.02 0 169.96 0 169.96-2.69Q173.18-2.69 173.78-3.13 174.38-3.56 174.34-4.08 174.31-4.59 174.01-5.35L174.01-5.35 171.82-11.47 157.63-11.47 155.12-5.35Q154.56-3.88 155.46-3.28 156.36-2.69 159.68-2.69L159.68-2.69 159.68 0 146.33 0ZM158.73-14.16L170.86-14.16 165.2-29.98 158.73-14.16ZM194.62 0L194.62-2.69Q197.38-2.69 198.27-3.14 199.16-3.59 199.41-4.1 199.67-4.61 199.67-5.35L199.67-5.35 199.65-12.28 189.44-31.27Q188.61-32.76 187.76-33.2L187.76-33.2Q186.32-33.94 184.09-33.94L184.09-33.94 184.09-36.62 198.23-36.62 198.23-33.94Q195.89-33.94 195.48-33.35 195.08-32.76 195.84-31.27L195.84-31.27 203.09-16.38 210.71-31.27Q211.49-32.76 211.02-33.18L211.02-33.18Q210.19-33.94 206.99-33.94L206.99-33.94 206.99-36.62 219.62-36.62 219.62-33.94Q217.81-33.94 216.65-33.33 215.49-32.71 214.71-31.27L214.71-31.27 204.89-13.23 204.89-5.35Q204.89-3.81 205.87-3.25 206.85-2.69 209.92-2.69L209.92-2.69 209.92 0 194.62 0Z" fill="black"></path></g></svg></g></svg></g></svg></g></svg></g><g transform="matrix(1,0,0,1,199.74985585433552,0)"><svg viewBox="0 0 44.49712267746442 45.36802042855557" height="45.36802042855557" width="44.49712267746442"><g><svg xmlns="http://www.w3.org/2000/svg" viewBox="1.9959670585913454 2 58.84822835230085 60.000005964961474" x="0" y="0" height="45.36802042855557" width="44.49712267746442" class="icon-icon-0" data-fill-palette-color="accent" id="SvgjsSvg4038"><rect x="32.136" y="12.973" width="2" height="13.054" transform="translate(-1.629 3.08) rotate(-5.194)" fill="black"></rect><rect x="46.359" y="13" width="2.008" height="2" transform="matrix(0.091, -0.996, 0.996, 0.091, 29.121, 59.896)" fill="black"></rect><rect x="46.272" y="48.992" width="2" height="4.016" transform="translate(-4.419 4.485) rotate(-5.189)" fill="black"></rect><rect x="58.056" y="39.967" width="1.999" height="19.066" transform="translate(-3.908 5.077) rotate(-4.766)" fill="black"></rect><path d="M58 35A2.98 2.98 0 0 0 57.22 33 2.981 2.981 0 0 0 55.094 28.01L57 7.091A1 1 0 0 0 56 6H55V4H53V6H51V3H49V6H47V4H45V6H43V2H41V6H39V4H37V6H35V4H33V6H31V3H29V6H27V4H25V6H24A1 1 0 0 0 23 7.091L24.725 26.037C24.485 26.027 24.246 26 24 26A18 18 0 0 0 24 62H56A1 1 0 0 0 57 60.917L55.09 37.991A3 3 0 0 0 58 35M8 44A16 16 0 1 1 24 60 16.02 16.02 0 0 1 8 44M55 36H42V38H45.087L45.913 47.091 47.905 46.909 47.1 38H53.08L54.913 60H32.213A17.972 17.972 0 0 0 26.761 26.234L25.1 8H54.91L53.087 28H47.1L48.092 17.091 46.1 16.909 45.087 28H41V11H39V28H37V30H55A1 1 0 0 1 55 32H40V34H55A1 1 0 0 1 55 36" fill="black"></path><path d="M23.083 54.962L22.917 56.956A13.4 13.4 0 0 0 25.083 56.956L24.917 54.962A11 11 0 0 1 23.083 54.962" fill="black"></path><path d="M27.249 31.409L26.749 33.347A11 11 0 0 1 26.749 54.653L27.249 56.591A13 13 0 0 0 27.249 31.409" fill="black"></path><path d="M13 44A11.02 11.02 0 0 1 20.333 33.625L19.667 31.74A13 13 0 0 0 19.667 56.26L20.333 54.375A11.02 11.02 0 0 1 13 44" fill="black"></path><path d="M18 44A6 6 0 0 1 27.092 38.856L28.123 37.144A8 8 0 0 0 19.877 50.856L20.908 49.144A5.96 5.96 0 0 1 18 44" fill="black"></path><path d="M32 44A8 8 0 0 0 30.856 39.877L29.144 40.908A6 6 0 0 1 24.858 49.938L25.142 51.919A8.035 8.035 0 0 0 32 44" fill="black"></path><path d="M27 44A3 3 0 0 0 24 41V43A1 1 0 1 1 23 44H21A3 3 0 0 0 27 44" fill="black"></path><path d="M3.253 51.333L5.138 50.667A20.03 20.03 0 0 1 15.429 25.924L14.571 24.117A22.025 22.025 0 0 0 3.253 51.333" fill="black"></path><path d="M6.856 54.306A20 20 0 0 1 5.924 52.571L4.117 53.429C4.427 54.08 4.772 54.724 5.144 55.339Z" fill="black"></path></svg></g></svg></g></svg></g></svg></g></svg></g><defs><mask></mask></defs></svg><rect width="320" height="360" fill="black" stroke="none" visibility="hidden"></rect></g></mask><mask><g id="SvgjsG4037"><svg viewBox="0 0 320 360" height="360" width="320"><g><svg></svg></g><g><svg viewBox="0 0 320 360" height="360" width="320"><g><path transform="translate(-25.80645,-5.80645) scale(10.32258,10.32258)" d="M18 33.5c8.55 0 15.5-6.95 15.5-15.5 0-8.55-6.95-15.5-15.5-15.5-8.55 0-15.5 6.95-15.5 15.5 0 8.55 6.95 15.5 15.5 15.5zM18.5 32.47v-1c7.04-0.26 12.71-5.93 12.97-12.97h1c-0.26 7.6-6.37 13.71-13.97 13.97zM18.5 3.53c7.6 0.26 13.71 6.37 13.97 13.97h-1c-0.26-7.04-5.93-12.71-12.97-12.97zM30.5 18c0 6.89-5.61 12.5-12.5 12.5-6.89 0-12.5-5.61-12.5-12.5 0-6.89 5.61-12.5 12.5-12.5 6.89 0 12.5 5.61 12.5 12.5zM17.5 3.53v1c-7.04 0.26-12.71 5.93-12.97 12.97h-1c0.26-7.6 6.37-13.71 13.97-13.97zM4.53 18.5c0.26 7.04 5.93 12.71 12.97 12.97v1c-7.6-0.26-13.71-6.37-13.97-13.97z" fill="black" fill-rule="nonzero" stroke="none" stroke-width="1" stroke-linecap="butt" stroke-linejoin="miter" stroke-miterlimit="10" stroke-dasharray="" stroke-dashoffset="0" font-family="none" font-weight="none" font-size="none" text-anchor="none" style="mix-blend-mode: normal"></path></g><g transform="matrix(1,0,0,1,64.00000000000001,162.16833638097887)"><svg viewBox="0 0 191.99999999999997 35.66332723804228" height="35.66332723804228" width="191.99999999999997"><g><svg viewBox="0 0 244.24697853179993 45.36802042855557" height="35.66332723804228" width="191.99999999999997"><g transform="matrix(1,0,0,1,0,6.270109914510936)"><svg viewBox="0 0 192 32.827800599533695" height="32.827800599533695" width="192"><g id="SvgjsG4036"><svg viewBox="0 0 192 32.827800599533695" height="32.827800599533695" width="192" id="SvgjsSvg4035"><g><svg viewBox="0 0 192 32.827800599533695" height="32.827800599533695" width="192"><g transform="matrix(1,0,0,1,0,0)"><svg width="192" viewBox="-0.27 -37.11 219.89000000000001 37.6" height="32.827800599533695" data-palette-color="url(#69f1b3c2-0dab-413e-aabb-48a1574d6879)"><g class="wordmark-text-0" data-fill-palette-color="primary" id="SvgjsG4034"></g></svg></g></svg></g></svg></g></svg></g><g transform="matrix(1,0,0,1,199.74985585433552,0)"><svg viewBox="0 0 44.49712267746442 45.36802042855557" height="45.36802042855557" width="44.49712267746442"><g><svg xmlns="http://www.w3.org/2000/svg" viewBox="1.9959670585913454 2 58.84822835230085 60.000005964961474" x="0" y="0" height="45.36802042855557" width="44.49712267746442" class="icon-icon-0" data-fill-palette-color="accent" id="SvgjsSvg4033"><rect x="32.136" y="12.973" width="2" height="13.054" transform="translate(-1.629 3.08) rotate(-5.194)" fill="black"></rect><rect x="46.359" y="13" width="2.008" height="2" transform="matrix(0.091, -0.996, 0.996, 0.091, 29.121, 59.896)" fill="black"></rect><rect x="46.272" y="48.992" width="2" height="4.016" transform="translate(-4.419 4.485) rotate(-5.189)" fill="black"></rect><rect x="58.056" y="39.967" width="1.999" height="19.066" transform="translate(-3.908 5.077) rotate(-4.766)" fill="black"></rect><path d="M58 35A2.98 2.98 0 0 0 57.22 33 2.981 2.981 0 0 0 55.094 28.01L57 7.091A1 1 0 0 0 56 6H55V4H53V6H51V3H49V6H47V4H45V6H43V2H41V6H39V4H37V6H35V4H33V6H31V3H29V6H27V4H25V6H24A1 1 0 0 0 23 7.091L24.725 26.037C24.485 26.027 24.246 26 24 26A18 18 0 0 0 24 62H56A1 1 0 0 0 57 60.917L55.09 37.991A3 3 0 0 0 58 35M8 44A16 16 0 1 1 24 60 16.02 16.02 0 0 1 8 44M55 36H42V38H45.087L45.913 47.091 47.905 46.909 47.1 38H53.08L54.913 60H32.213A17.972 17.972 0 0 0 26.761 26.234L25.1 8H54.91L53.087 28H47.1L48.092 17.091 46.1 16.909 45.087 28H41V11H39V28H37V30H55A1 1 0 0 1 55 32H40V34H55A1 1 0 0 1 55 36" fill="black"></path><path d="M23.083 54.962L22.917 56.956A13.4 13.4 0 0 0 25.083 56.956L24.917 54.962A11 11 0 0 1 23.083 54.962" fill="black"></path><path d="M27.249 31.409L26.749 33.347A11 11 0 0 1 26.749 54.653L27.249 56.591A13 13 0 0 0 27.249 31.409" fill="black"></path><path d="M13 44A11.02 11.02 0 0 1 20.333 33.625L19.667 31.74A13 13 0 0 0 19.667 56.26L20.333 54.375A11.02 11.02 0 0 1 13 44" fill="black"></path><path d="M18 44A6 6 0 0 1 27.092 38.856L28.123 37.144A8 8 0 0 0 19.877 50.856L20.908 49.144A5.96 5.96 0 0 1 18 44" fill="black"></path><path d="M32 44A8 8 0 0 0 30.856 39.877L29.144 40.908A6 6 0 0 1 24.858 49.938L25.142 51.919A8.035 8.035 0 0 0 32 44" fill="black"></path><path d="M27 44A3 3 0 0 0 24 41V43A1 1 0 1 1 23 44H21A3 3 0 0 0 27 44" fill="black"></path><path d="M3.253 51.333L5.138 50.667A20.03 20.03 0 0 1 15.429 25.924L14.571 24.117A22.025 22.025 0 0 0 3.253 51.333" fill="black"></path><path d="M6.856 54.306A20 20 0 0 1 5.924 52.571L4.117 53.429C4.427 54.08 4.772 54.724 5.144 55.339Z" fill="black"></path></svg></g></svg></g></svg></g></svg></g></svg></g><defs><mask></mask></defs><mask><g id="SvgjsG4032"><svg viewBox="0 0 320 360" height="360" width="320"><g><svg></svg></g><g><svg viewBox="0 0 320 360" height="360" width="320"><g><path transform="translate(-25.80645,-5.80645) scale(10.32258,10.32258)" d="M18 33.5c8.55 0 15.5-6.95 15.5-15.5 0-8.55-6.95-15.5-15.5-15.5-8.55 0-15.5 6.95-15.5 15.5 0 8.55 6.95 15.5 15.5 15.5zM18.5 32.47v-1c7.04-0.26 12.71-5.93 12.97-12.97h1c-0.26 7.6-6.37 13.71-13.97 13.97zM18.5 3.53c7.6 0.26 13.71 6.37 13.97 13.97h-1c-0.26-7.04-5.93-12.71-12.97-12.97zM30.5 18c0 6.89-5.61 12.5-12.5 12.5-6.89 0-12.5-5.61-12.5-12.5 0-6.89 5.61-12.5 12.5-12.5 6.89 0 12.5 5.61 12.5 12.5zM17.5 3.53v1c-7.04 0.26-12.71 5.93-12.97 12.97h-1c0.26-7.6 6.37-13.71 13.97-13.97zM4.53 18.5c0.26 7.04 5.93 12.71 12.97 12.97v1c-7.6-0.26-13.71-6.37-13.97-13.97z" fill="black" fill-rule="nonzero" stroke="none" stroke-width="1" stroke-linecap="butt" stroke-linejoin="miter" stroke-miterlimit="10" stroke-dasharray="" stroke-dashoffset="0" font-family="none" font-weight="none" font-size="none" text-anchor="none" style="mix-blend-mode: normal"></path></g><g transform="matrix(1,0,0,1,64.00000000000001,162.16833638097887)"><svg viewBox="0 0 191.99999999999997 35.66332723804228" height="35.66332723804228" width="191.99999999999997"><g><svg viewBox="0 0 244.24697853179993 45.36802042855557" height="35.66332723804228" width="191.99999999999997"><g transform="matrix(1,0,0,1,0,6.270109914510936)"><svg viewBox="0 0 192 32.827800599533695" height="32.827800599533695" width="192"><g id="SvgjsG4031"><svg viewBox="0 0 192 32.827800599533695" height="32.827800599533695" width="192" id="SvgjsSvg4030"><g><svg viewBox="0 0 192 32.827800599533695" height="32.827800599533695" width="192"><g transform="matrix(1,0,0,1,0,0)"><svg width="192" viewBox="-0.27 -37.11 219.89000000000001 37.6" height="32.827800599533695" data-palette-color="url(#69f1b3c2-0dab-413e-aabb-48a1574d6879)"><g class="wordmark-text-0" data-fill-palette-color="primary" id="SvgjsG4029"><path d="M-0.27 0L-0.27-2.69Q1.76-2.69 2.8-3.31 3.83-3.93 4.39-5.35L4.39-5.35 17.58-36.62 21.75-36.62 33.81-5.35Q34.47-3.78 35.28-3.23 36.08-2.69 38.43-2.69L38.43-2.69 38.43 0 23.36 0 23.36-2.69Q26.59-2.69 27.19-3.13 27.78-3.56 27.75-4.08 27.71-4.59 27.42-5.35L27.42-5.35 25.22-11.47 11.04-11.47 8.52-5.35Q7.96-3.88 8.86-3.28 9.77-2.69 13.09-2.69L13.09-2.69 13.09 0-0.27 0ZM12.13-14.16L24.27-14.16 18.6-29.98 12.13-14.16ZM60.47 0L60.47-2.69Q65.77-2.81 63.45-6.37L63.45-6.37 55.95-18.36 49.95-12.52 49.97-5.35Q49.97-3.76 50.51-3.37L50.51-3.37Q51.44-2.69 54.03-2.69L54.03-2.69 54.03 0 40.35 0 40.35-2.69Q42.67-2.69 43.38-3.14 44.09-3.59 44.28-4.1 44.48-4.61 44.48-5.35L44.48-5.35 44.46-31.27Q44.46-32.86 43.92-33.25L43.92-33.25Q42.94-33.94 40.35-33.94L40.35-33.94 40.35-36.62 54.03-36.62 54.03-33.94Q51.71-33.94 51.02-33.48 50.34-33.03 50.14-32.52 49.95-32.01 49.95-31.27L49.95-31.27 49.95-16.67 64.48-31.23Q65.82-32.52 64.82-33.23 63.82-33.94 61.5-33.94L61.5-33.94 61.5-36.62 74.56-36.62 74.56-33.94Q72.92-33.84 71.86-33.31 70.8-32.79 69.58-31.57L69.58-31.57 59.54-21.83 69.65-6.32Q70.87-4.37 72.25-3.53 73.63-2.69 75.46-2.69L75.46-2.69Q75.63-2.69 75.78-2.69L75.78-2.69 75.78 0 60.47 0ZM97.24-32.47L97.24-32.47Q95.97-34.18 91.8-34.18 87.64-34.18 86.05-31.4L86.05-31.4Q85.52-30.44 85.52-29.05L85.52-29.05Q85.52-26.49 87.81-24.37L87.81-24.37Q89.33-22.95 92-21.46 94.67-19.97 96.5-18.8L96.5-18.8Q103.41-14.4 103.41-9.18L103.41-9.18Q103.41-4.54 100.01-2.03 96.6 0.49 91.19 0.49 85.79 0.49 82.53-1.65 79.27-3.78 79.27-6.56 79.27-9.33 81.49-10.3L81.49-10.3Q82.17-10.62 82.98-10.62L82.98-10.62Q84.52-10.62 85.51-9.59 86.49-8.57 86.49-7.01 86.49-5.44 85.08-4.35L85.08-4.35Q86.98-2.44 91.39-2.44 95.8-2.44 97.43-5.42L97.43-5.42Q98.02-6.45 98.02-7.81L98.02-7.81Q98.02-10.18 95.58-12.21L95.58-12.21Q94.31-13.26 91.29-14.93 88.28-16.6 86.54-17.72L86.54-17.72Q80.17-21.83 80.17-27.39L80.17-27.39Q80.17-31.74 83.45-34.42 86.74-37.11 91.58-37.11 96.43-37.11 99.54-35.03 102.66-32.96 102.66-29.98L102.66-29.98Q102.66-28.37 101.67-27.28 100.68-26.2 99.16-26.2L99.16-26.2Q96.85-26.2 95.94-28.22L95.94-28.22Q95.67-28.83 95.67-29.52L95.67-29.52Q95.67-31.4 97.24-32.47ZM107.46 0L107.46-2.69Q109.78-2.69 110.49-3.14 111.2-3.59 111.39-4.1 111.59-4.61 111.59-5.35L111.59-5.35 111.56-31.27Q111.56-32.86 111.03-33.25L111.03-33.25Q110.05-33.94 107.46-33.94L107.46-33.94 107.46-36.62 121.18-36.62 121.18-33.94Q118.86-33.94 118.16-33.48 117.45-33.03 117.25-32.52 117.06-32.01 117.06-31.27L117.06-31.27 117.06-20.36 135.25-20.36 135.25-31.27Q135.25-32.86 134.71-33.25L134.71-33.25Q133.73-33.94 131.14-33.94L131.14-33.94 131.14-36.62 144.87-36.62 144.87-33.94Q142.55-33.94 141.84-33.48 141.13-33.03 140.93-32.52 140.74-32.01 140.74-31.27L140.74-31.27 140.76-5.35Q140.76-3.76 141.3-3.37L141.3-3.37Q142.28-2.69 144.87-2.69L144.87-2.69 144.87 0 131.14 0 131.14-2.69Q133.46-2.69 134.17-3.14 134.88-3.59 135.08-4.1 135.27-4.61 135.27-5.35L135.27-5.35 135.25-17.19 117.06-17.19 117.08-5.35Q117.08-3.76 117.62-3.37L117.62-3.37Q118.6-2.69 121.18-2.69L121.18-2.69 121.18 0 107.46 0ZM146.33 0L146.33-2.69Q148.35-2.69 149.39-3.31 150.43-3.93 150.99-5.35L150.99-5.35 164.17-36.62 168.35-36.62 180.41-5.35Q181.07-3.78 181.87-3.23 182.68-2.69 185.02-2.69L185.02-2.69 185.02 0 169.96 0 169.96-2.69Q173.18-2.69 173.78-3.13 174.38-3.56 174.34-4.08 174.31-4.59 174.01-5.35L174.01-5.35 171.82-11.47 157.63-11.47 155.12-5.35Q154.56-3.88 155.46-3.28 156.36-2.69 159.68-2.69L159.68-2.69 159.68 0 146.33 0ZM158.73-14.16L170.86-14.16 165.2-29.98 158.73-14.16ZM194.62 0L194.62-2.69Q197.38-2.69 198.27-3.14 199.16-3.59 199.41-4.1 199.67-4.61 199.67-5.35L199.67-5.35 199.65-12.28 189.44-31.27Q188.61-32.76 187.76-33.2L187.76-33.2Q186.32-33.94 184.09-33.94L184.09-33.94 184.09-36.62 198.23-36.62 198.23-33.94Q195.89-33.94 195.48-33.35 195.08-32.76 195.84-31.27L195.84-31.27 203.09-16.38 210.71-31.27Q211.49-32.76 211.02-33.18L211.02-33.18Q210.19-33.94 206.99-33.94L206.99-33.94 206.99-36.62 219.62-36.62 219.62-33.94Q217.81-33.94 216.65-33.33 215.49-32.71 214.71-31.27L214.71-31.27 204.89-13.23 204.89-5.35Q204.89-3.81 205.87-3.25 206.85-2.69 209.92-2.69L209.92-2.69 209.92 0 194.62 0Z" fill="black"></path></g></svg></g></svg></g></svg></g></svg></g><g transform="matrix(1,0,0,1,199.74985585433552,0)"><svg viewBox="0 0 44.49712267746442 45.36802042855557" height="45.36802042855557" width="44.49712267746442"><g><svg xmlns="http://www.w3.org/2000/svg" viewBox="1.9959670585913454 2 58.84822835230085 60.000005964961474" x="0" y="0" height="45.36802042855557" width="44.49712267746442" class="icon-icon-0" data-fill-palette-color="accent" id="SvgjsSvg4028"><rect x="32.136" y="12.973" width="2" height="13.054" transform="translate(-1.629 3.08) rotate(-5.194)" fill="black"></rect><rect x="46.359" y="13" width="2.008" height="2" transform="matrix(0.091, -0.996, 0.996, 0.091, 29.121, 59.896)" fill="black"></rect><rect x="46.272" y="48.992" width="2" height="4.016" transform="translate(-4.419 4.485) rotate(-5.189)" fill="black"></rect><rect x="58.056" y="39.967" width="1.999" height="19.066" transform="translate(-3.908 5.077) rotate(-4.766)" fill="black"></rect><path d="M58 35A2.98 2.98 0 0 0 57.22 33 2.981 2.981 0 0 0 55.094 28.01L57 7.091A1 1 0 0 0 56 6H55V4H53V6H51V3H49V6H47V4H45V6H43V2H41V6H39V4H37V6H35V4H33V6H31V3H29V6H27V4H25V6H24A1 1 0 0 0 23 7.091L24.725 26.037C24.485 26.027 24.246 26 24 26A18 18 0 0 0 24 62H56A1 1 0 0 0 57 60.917L55.09 37.991A3 3 0 0 0 58 35M8 44A16 16 0 1 1 24 60 16.02 16.02 0 0 1 8 44M55 36H42V38H45.087L45.913 47.091 47.905 46.909 47.1 38H53.08L54.913 60H32.213A17.972 17.972 0 0 0 26.761 26.234L25.1 8H54.91L53.087 28H47.1L48.092 17.091 46.1 16.909 45.087 28H41V11H39V28H37V30H55A1 1 0 0 1 55 32H40V34H55A1 1 0 0 1 55 36" fill="black"></path><path d="M23.083 54.962L22.917 56.956A13.4 13.4 0 0 0 25.083 56.956L24.917 54.962A11 11 0 0 1 23.083 54.962" fill="black"></path><path d="M27.249 31.409L26.749 33.347A11 11 0 0 1 26.749 54.653L27.249 56.591A13 13 0 0 0 27.249 31.409" fill="black"></path><path d="M13 44A11.02 11.02 0 0 1 20.333 33.625L19.667 31.74A13 13 0 0 0 19.667 56.26L20.333 54.375A11.02 11.02 0 0 1 13 44" fill="black"></path><path d="M18 44A6 6 0 0 1 27.092 38.856L28.123 37.144A8 8 0 0 0 19.877 50.856L20.908 49.144A5.96 5.96 0 0 1 18 44" fill="black"></path><path d="M32 44A8 8 0 0 0 30.856 39.877L29.144 40.908A6 6 0 0 1 24.858 49.938L25.142 51.919A8.035 8.035 0 0 0 32 44" fill="black"></path><path d="M27 44A3 3 0 0 0 24 41V43A1 1 0 1 1 23 44H21A3 3 0 0 0 27 44" fill="black"></path><path d="M3.253 51.333L5.138 50.667A20.03 20.03 0 0 1 15.429 25.924L14.571 24.117A22.025 22.025 0 0 0 3.253 51.333" fill="black"></path><path d="M6.856 54.306A20 20 0 0 1 5.924 52.571L4.117 53.429C4.427 54.08 4.772 54.724 5.144 55.339Z" fill="black"></path></svg></g></svg></g></svg></g></svg></g></svg></g><defs><mask></mask></defs></svg><rect width="320" height="360" fill="black" stroke="none" visibility="hidden"></rect></g></mask></svg><rect width="320" height="360" fill="black" stroke="none" visibility="hidden"></rect></g></mask></svg><rect width="320" height="360" fill="black" stroke="none" visibility="hidden"></rect></g></mask><linearGradient x1="0.054" x2="0.941" y1="0.5" y2="0.5" id="5dacde30-06d6-42aa-ab13-d0c6cf2caf07"><stop stop-color="#864d25" offset="0"></stop><stop stop-color="#f1c4b3" offset="0.498"></stop><stop stop-color="#864d25" offset="1"></stop></linearGradient></svg><rect width="320" height="360" fill="none" stroke="none" visibility="hidden"></rect></g></svg></g></svg>